<svg xmlns="http://www.w3.org/2000/svg" viewBox="0 0 220 280" width="220" height="280" role="img" aria-labelledby="t3">
  <title id="t3">Neural network option 3: hub and satellites</title>
  <defs>
    <radialGradient id="h-bg" cx="50%" cy="42%" r="75%">
      <stop offset="0%" stop-color="#1e1b4b" stop-opacity="0.45"/>
      <stop offset="55%" stop-color="#0f172a"/>
      <stop offset="100%" stop-color="#06080d"/>
    </radialGradient>
    <filter id="h-glow" x="-50%" y="-50%" width="200%" height="200%">
      <feGaussianBlur stdDeviation="2" result="z"/>
      <feMerge><feMergeNode in="z"/><feMergeNode in="SourceGraphic"/></feMerge>
    </filter>
  </defs>
  <rect width="220" height="280" rx="10" fill="url(#h-bg)"/>
  <rect width="220" height="280" rx="10" fill="none" stroke="rgba(125,211,252,0.2)" stroke-width="1"/>
  <g stroke="rgba(125,211,252,0.32)" stroke-width="1" fill="none">
    <line x1="110" y1="128" x2="110" y2="52"/><line x1="110" y1="128" x2="52" y2="78"/><line x1="110" y1="128" x2="168" y2="78"/>
    <line x1="110" y1="128" x2="40" y2="128"/><line x1="110" y1="128" x2="180" y2="128"/>
    <line x1="110" y1="128" x2="52" y2="178"/><line x1="110" y1="128" x2="168" y2="178"/><line x1="110" y1="128" x2="110" y2="204"/>
  </g>
  <g fill="#1e293b" stroke="#67e8f9" stroke-width="1">
    <circle cx="110" cy="44" r="7"/><circle cx="52" cy="72" r="6"/><circle cx="168" cy="72" r="6"/>
    <circle cx="40" cy="128" r="6"/><circle cx="180" cy="128" r="6"/>
    <circle cx="52" cy="184" r="6"/><circle cx="168" cy="184" r="6"/><circle cx="110" cy="212" r="7"/>
  </g>
  <circle cx="110" cy="128" r="22" fill="#134e4a" stroke="#5eead4" stroke-width="2" filter="url(#h-glow)"/>
  <circle cx="110" cy="128" r="10" fill="#0f172a" stroke="#99f6e4" stroke-width="1.2"/>
  <text x="110" y="258" text-anchor="middle" fill="rgba(226,232,240,0.5)" font-family="system-ui,sans-serif" font-size="10" letter-spacing="0.1em">OPTION 3 HUB</text>
</svg>
